<?xml version="1.0" encoding="UTF-8"?>
<!--Generator: Apple Native CoreSVG 149-->
<!DOCTYPE svg
PUBLIC "-//W3C//DTD SVG 1.1//EN"
       "http://www.w3.org/Graphics/SVG/1.1/DTD/svg11.dtd">
<svg version="1.1" xmlns="http://www.w3.org/2000/svg" xmlns:xlink="http://www.w3.org/1999/xlink" width="3300" height="2200">
 <!--glyph: "uni100584.medium", point size: 100.000000, font version: "Version 16.0d12e3", template writer version: "8"-->
 <g id="Notes">
  <rect height="2200" id="artboard" style="fill:white;opacity:1" width="3300" x="0" y="0"/>
  <line id="" style="fill:none;stroke:black;opacity:1;stroke-width:0.5;" x1="263" x2="3036" y1="292" y2="292"/>
  <text style="stroke:none;fill:black;font-family:-apple-system,&quot;SF Pro Display&quot;,&quot;SF Pro Text&quot;,Helvetica,sans-serif;font-weight:bold;" transform="matrix(1 0 0 1 263 322)">Weight/Scale Variations</text>
  <text style="stroke:none;fill:black;font-family:-apple-system,&quot;SF Pro Display&quot;,&quot;SF Pro Text&quot;,Helvetica,sans-serif;text-anchor:middle;" transform="matrix(1 0 0 1 559.711 322)">Ultralight</text>
  <text style="stroke:none;fill:black;font-family:-apple-system,&quot;SF Pro Display&quot;,&quot;SF Pro Text&quot;,Helvetica,sans-serif;text-anchor:middle;" transform="matrix(1 0 0 1 856.422 322)">Thin</text>
  <text style="stroke:none;fill:black;font-family:-apple-system,&quot;SF Pro Display&quot;,&quot;SF Pro Text&quot;,Helvetica,sans-serif;text-anchor:middle;" transform="matrix(1 0 0 1 1153.13 322)">Light</text>
  <text style="stroke:none;fill:black;font-family:-apple-system,&quot;SF Pro Display&quot;,&quot;SF Pro Text&quot;,Helvetica,sans-serif;text-anchor:middle;" transform="matrix(1 0 0 1 1449.84 322)">Regular</text>
  <text style="stroke:none;fill:black;font-family:-apple-system,&quot;SF Pro Display&quot;,&quot;SF Pro Text&quot;,Helvetica,sans-serif;text-anchor:middle;" transform="matrix(1 0 0 1 1746.56 322)">Medium</text>
  <text style="stroke:none;fill:black;font-family:-apple-system,&quot;SF Pro Display&quot;,&quot;SF Pro Text&quot;,Helvetica,sans-serif;text-anchor:middle;" transform="matrix(1 0 0 1 2043.27 322)">Semibold</text>
  <text style="stroke:none;fill:black;font-family:-apple-system,&quot;SF Pro Display&quot;,&quot;SF Pro Text&quot;,Helvetica,sans-serif;text-anchor:middle;" transform="matrix(1 0 0 1 2339.98 322)">Bold</text>
  <text style="stroke:none;fill:black;font-family:-apple-system,&quot;SF Pro Display&quot;,&quot;SF Pro Text&quot;,Helvetica,sans-serif;text-anchor:middle;" transform="matrix(1 0 0 1 2636.69 322)">Heavy</text>
  <text style="stroke:none;fill:black;font-family:-apple-system,&quot;SF Pro Display&quot;,&quot;SF Pro Text&quot;,Helvetica,sans-serif;text-anchor:middle;" transform="matrix(1 0 0 1 2933.4 322)">Black</text>
  <line id="" style="fill:none;stroke:black;opacity:1;stroke-width:0.5;" x1="263" x2="3036" y1="1903" y2="1903"/>
  <g id="" transform="matrix(1 0 0 1 263 1933)">
   <path d="M9.24805 0.830078C13.5547 0.830078 17.1387-2.74414 17.1387-7.05078C17.1387-11.3574 13.5449-14.9316 9.23828-14.9316C4.94141-14.9316 1.36719-11.3574 1.36719-7.05078C1.36719-2.74414 4.95117 0.830078 9.24805 0.830078ZM9.24805-0.654297C5.70312-0.654297 2.87109-3.49609 2.87109-7.05078C2.87109-10.6055 5.69336-13.4473 9.23828-13.4473C12.793-13.4473 15.6348-10.6055 15.6445-7.05078C15.6543-3.49609 12.8027-0.654297 9.24805-0.654297ZM9.22852-3.62305C9.69727-3.62305 9.9707-3.93555 9.9707-4.45312L9.9707-6.31836L12.002-6.31836C12.5-6.31836 12.832-6.57227 12.832-7.04102C12.832-7.51953 12.5195-7.7832 12.002-7.7832L9.9707-7.7832L9.9707-9.81445C9.9707-10.332 9.69727-10.6543 9.22852-10.6543C8.75977-10.6543 8.50586-10.3125 8.50586-9.81445L8.50586-7.7832L6.49414-7.7832C5.97656-7.7832 5.64453-7.51953 5.64453-7.04102C5.64453-6.57227 5.99609-6.31836 6.49414-6.31836L8.50586-6.31836L8.50586-4.45312C8.50586-3.95508 8.75977-3.62305 9.22852-3.62305Z"/>
  </g>
  <g id="" transform="matrix(1 0 0 1 281.506 1933)">
   <path d="M11.709 2.91016C17.1582 2.91016 21.6699-1.61133 21.6699-7.05078C21.6699-12.5 17.1484-17.0117 11.6992-17.0117C6.25977-17.0117 1.74805-12.5 1.74805-7.05078C1.74805-1.61133 6.26953 2.91016 11.709 2.91016ZM11.709 1.25C7.09961 1.25 3.41797-2.44141 3.41797-7.05078C3.41797-11.6602 7.08984-15.3516 11.6992-15.3516C16.3086-15.3516 20-11.6602 20.0098-7.05078C20.0195-2.44141 16.3184 1.25 11.709 1.25ZM11.6797-2.66602C12.207-2.66602 12.5098-3.01758 12.5098-3.59375L12.5098-6.23047L15.3223-6.23047C15.8691-6.23047 16.25-6.51367 16.25-7.03125C16.25-7.55859 15.8887-7.86133 15.3223-7.86133L12.5098-7.86133L12.5098-10.6836C12.5098-11.25 12.207-11.6113 11.6797-11.6113C11.1621-11.6113 10.8789-11.2305 10.8789-10.6836L10.8789-7.86133L8.07617-7.86133C7.50977-7.86133 7.13867-7.55859 7.13867-7.03125C7.13867-6.51367 7.5293-6.23047 8.07617-6.23047L10.8789-6.23047L10.8789-3.59375C10.8789-3.03711 11.1621-2.66602 11.6797-2.66602Z"/>
  </g>
  <g id="" transform="matrix(1 0 0 1 304.924 1933)">
   <path d="M14.9707 5.66406C21.9336 5.66406 27.6953-0.0976562 27.6953-7.05078C27.6953-14.0137 21.9238-19.7754 14.9609-19.7754C8.00781-19.7754 2.25586-14.0137 2.25586-7.05078C2.25586-0.0976562 8.01758 5.66406 14.9707 5.66406ZM14.9707 3.84766C8.93555 3.84766 4.08203-1.01562 4.08203-7.05078C4.08203-13.0957 8.92578-17.9492 14.9609-17.9492C21.0059-17.9492 25.8594-13.0957 25.8691-7.05078C25.8789-1.01562 21.0156 3.84766 14.9707 3.84766ZM14.9414-1.38672C15.5176-1.38672 15.8594-1.77734 15.8594-2.38281L15.8594-6.13281L19.7754-6.13281C20.3711-6.13281 20.7812-6.46484 20.7812-7.02148C20.7812-7.59766 20.3906-7.93945 19.7754-7.93945L15.8594-7.93945L15.8594-11.8652C15.8594-12.4805 15.5176-12.8711 14.9414-12.8711C14.375-12.8711 14.0527-12.4609 14.0527-11.8652L14.0527-7.93945L10.1465-7.93945C9.53125-7.93945 9.13086-7.59766 9.13086-7.02148C9.13086-6.46484 9.55078-6.13281 10.1465-6.13281L14.0527-6.13281L14.0527-2.38281C14.0527-1.79688 14.375-1.38672 14.9414-1.38672Z"/>
  </g>
  <text style="stroke:none;fill:black;font-family:-apple-system,&quot;SF Pro Display&quot;,&quot;SF Pro Text&quot;,Helvetica,sans-serif;font-weight:bold;" transform="matrix(1 0 0 1 263 1953)">Design Variations</text>
  <text style="stroke:none;fill:black;font-family:-apple-system,&quot;SF Pro Display&quot;,&quot;SF Pro Text&quot;,Helvetica,sans-serif;" transform="matrix(1 0 0 1 263 1971)">Symbols are supported in up to nine weights and three scales.</text>
  <text style="stroke:none;fill:black;font-family:-apple-system,&quot;SF Pro Display&quot;,&quot;SF Pro Text&quot;,Helvetica,sans-serif;" transform="matrix(1 0 0 1 263 1989)">For optimal layout with text and other symbols, vertically align</text>
  <text style="stroke:none;fill:black;font-family:-apple-system,&quot;SF Pro Display&quot;,&quot;SF Pro Text&quot;,Helvetica,sans-serif;" transform="matrix(1 0 0 1 263 2007)">symbols with the adjacent text.</text>
  <line id="" style="fill:none;stroke:#00AEEF;stroke-width:0.5;opacity:1.0;" x1="776" x2="776" y1="1919" y2="1933"/>
  <g id="" transform="matrix(1 0 0 1 776 1933)">
   <path d="M3.31055 0.126953C3.82812 0.126953 4.08203-0.0683594 4.26758-0.605469L5.52734-4.0625L11.2891-4.0625L12.5488-0.605469C12.7344-0.0683594 12.9883 0.126953 13.4961 0.126953C14.0137 0.126953 14.3457-0.185547 14.3457-0.673828C14.3457-0.839844 14.3164-0.986328 14.2383-1.20117L9.6582-13.3887C9.43359-13.9941 9.0332-14.2871 8.4082-14.2871C7.80273-14.2871 7.39258-13.9941 7.17773-13.3984L2.59766-1.19141C2.51953-0.976562 2.49023-0.830078 2.49023-0.664062C2.49023-0.175781 2.80273 0.126953 3.31055 0.126953ZM6.00586-5.53711L8.37891-12.1094L8.42773-12.1094L10.8008-5.53711Z"/>
  </g>
  <line id="" style="fill:none;stroke:#00AEEF;stroke-width:0.5;opacity:1.0;" x1="792.836" x2="792.836" y1="1919" y2="1933"/>
  <text style="stroke:none;fill:black;font-family:-apple-system,&quot;SF Pro Display&quot;,&quot;SF Pro Text&quot;,Helvetica,sans-serif;font-weight:bold;" transform="matrix(1 0 0 1 776 1953)">Margins</text>
  <text style="stroke:none;fill:black;font-family:-apple-system,&quot;SF Pro Display&quot;,&quot;SF Pro Text&quot;,Helvetica,sans-serif;" transform="matrix(1 0 0 1 776 1971)">Leading and trailing margins on the left and right side of each symbol</text>
  <text style="stroke:none;fill:black;font-family:-apple-system,&quot;SF Pro Display&quot;,&quot;SF Pro Text&quot;,Helvetica,sans-serif;" transform="matrix(1 0 0 1 776 1989)">can be adjusted by modifying the x-location of the margin guidelines.</text>
  <text style="stroke:none;fill:black;font-family:-apple-system,&quot;SF Pro Display&quot;,&quot;SF Pro Text&quot;,Helvetica,sans-serif;" transform="matrix(1 0 0 1 776 2007)">Modifications are automatically applied proportionally to all</text>
  <text style="stroke:none;fill:black;font-family:-apple-system,&quot;SF Pro Display&quot;,&quot;SF Pro Text&quot;,Helvetica,sans-serif;" transform="matrix(1 0 0 1 776 2025)">scales and weights.</text>
  <g id="" transform="matrix(1 0 0 1 1289 1933)">
   <path d="M2.8418 1.86523L4.54102 3.57422C5.40039 4.44336 6.38672 4.38477 7.31445 3.35938L17.4902-7.85156C17.7539-7.76367 18.0273-7.7832 18.3398-7.8418L19.4043-8.03711L20.0684-7.36328L20.0293-6.80664C19.9902-6.30859 20.1172-5.92773 20.6055-5.44922L21.3672-4.70703C21.8457-4.22852 22.4609-4.19922 22.9297-4.66797L25.8398-7.58789C26.3086-8.05664 26.2891-8.65234 25.8105-9.13086L25.0391-9.89258C24.5605-10.3711 24.1895-10.5273 23.7109-10.4883L23.1348-10.4395L22.4902-11.0742L22.7344-12.1973C22.8613-12.7637 22.7051-13.2031 22.1191-13.7891L19.9219-15.9766C16.582-19.2969 12.1484-19.2188 9.25781-16.3281C8.83789-15.918 8.80859-15.3418 9.04297-14.9512C9.27734-14.5898 9.73633-14.3555 10.3809-14.5215C11.8457-14.8633 13.3691-14.9219 14.7949-13.9844L14.209-12.5293C14.0137-12.0508 13.9844-11.6504 14.1113-11.2891L3.04688-0.898438C2.06055 0.0195312 1.98242 0.996094 2.8418 1.86523ZM10.752-15.957C13.1836-17.7344 16.4746-17.4316 18.7012-15.2051L21.1328-12.793C21.3672-12.5586 21.4062-12.373 21.3379-12.0312L21.0156-10.5469L22.5195-9.0625L23.5059-9.12109C23.7598-9.13086 23.8379-9.11133 24.0332-8.91602L24.6094-8.33984L22.168-5.89844L21.5918-6.47461C21.3965-6.66992 21.3672-6.74805 21.377-7.01172L21.4453-7.98828L19.9512-9.47266L18.4277-9.21875C18.1055-9.15039 17.959-9.17969 17.7148-9.41406L15.7129-11.416C15.459-11.6504 15.4297-11.8164 15.5859-12.1875L16.4648-14.2773C14.9023-15.7324 12.8711-16.3574 10.8398-15.7617C10.6836-15.7227 10.625-15.8496 10.752-15.957ZM5.27344 2.30469L4.10156 1.14258C3.63281 0.683594 3.74023 0.341797 4.14062-0.0195312L14.9512-10.1953L16.416-8.71094L6.42578 2.27539C6.07422 2.67578 5.74219 2.77344 5.27344 2.30469Z"/>
  </g>
  <text style="stroke:none;fill:black;font-family:-apple-system,&quot;SF Pro Display&quot;,&quot;SF Pro Text&quot;,Helvetica,sans-serif;font-weight:bold;" transform="matrix(1 0 0 1 1289 1953)">Exporting</text>
  <text style="stroke:none;fill:black;font-family:-apple-system,&quot;SF Pro Display&quot;,&quot;SF Pro Text&quot;,Helvetica,sans-serif;" transform="matrix(1 0 0 1 1289 1971)">Symbols should be outlined when exporting to ensure the</text>
  <text style="stroke:none;fill:black;font-family:-apple-system,&quot;SF Pro Display&quot;,&quot;SF Pro Text&quot;,Helvetica,sans-serif;" transform="matrix(1 0 0 1 1289 1989)">design is preserved when submitting to Xcode.</text>
  <text id="template-version" style="stroke:none;fill:black;font-family:-apple-system,&quot;SF Pro Display&quot;,&quot;SF Pro Text&quot;,Helvetica,sans-serif;text-anchor:end;" transform="matrix(1 0 0 1 3036 1933)">Template v.2.0</text>
  <text style="stroke:none;fill:black;font-family:-apple-system,&quot;SF Pro Display&quot;,&quot;SF Pro Text&quot;,Helvetica,sans-serif;text-anchor:end;" transform="matrix(1 0 0 1 3036 1951)">Requires Xcode 12 or greater</text>
  <text style="stroke:none;fill:black;font-family:-apple-system,&quot;SF Pro Display&quot;,&quot;SF Pro Text&quot;,Helvetica,sans-serif;text-anchor:end;" transform="matrix(1 0 0 1 3036 1969)">Generated from arrow.triangle.merge</text>
  <text style="stroke:none;fill:black;font-family:-apple-system,&quot;SF Pro Display&quot;,&quot;SF Pro Text&quot;,Helvetica,sans-serif;text-anchor:end;" transform="matrix(1 0 0 1 3036 1987)">Typeset at 100 points</text>
  <text style="stroke:none;fill:black;font-family:-apple-system,&quot;SF Pro Display&quot;,&quot;SF Pro Text&quot;,Helvetica,sans-serif;" transform="matrix(1 0 0 1 263 726)">Small</text>
  <text style="stroke:none;fill:black;font-family:-apple-system,&quot;SF Pro Display&quot;,&quot;SF Pro Text&quot;,Helvetica,sans-serif;" transform="matrix(1 0 0 1 263 1156)">Medium</text>
  <text style="stroke:none;fill:black;font-family:-apple-system,&quot;SF Pro Display&quot;,&quot;SF Pro Text&quot;,Helvetica,sans-serif;" transform="matrix(1 0 0 1 263 1586)">Large</text>
 </g>
 <g id="Guides">
  <g id="H-reference" style="fill:#27AAE1;stroke:none;" transform="matrix(1 0 0 1 339 696)">
   <path d="M0.976562 0L3.66211 0L12.9883-24.4629L45.752-24.4629L55.127 0L57.7637 0L30.6152-70.459L28.125-70.459ZM29.3457-67.1387L29.4434-67.1387L44.873-26.709L13.8672-26.709Z"/>
  </g>
  <line id="Baseline-S" style="fill:none;stroke:#27AAE1;opacity:1;stroke-width:0.5;" x1="263" x2="3036" y1="696" y2="696"/>
  <line id="Capline-S" style="fill:none;stroke:#27AAE1;opacity:1;stroke-width:0.5;" x1="263" x2="3036" y1="625.541" y2="625.541"/>
  <g id="H-reference" style="fill:#27AAE1;stroke:none;" transform="matrix(1 0 0 1 339 1126)">
   <path d="M0.976562 0L3.66211 0L12.9883-24.4629L45.752-24.4629L55.127 0L57.7637 0L30.6152-70.459L28.125-70.459ZM29.3457-67.1387L29.4434-67.1387L44.873-26.709L13.8672-26.709Z"/>
  </g>
  <line id="Baseline-M" style="fill:none;stroke:#27AAE1;opacity:1;stroke-width:0.5;" x1="263" x2="3036" y1="1126" y2="1126"/>
  <line id="Capline-M" style="fill:none;stroke:#27AAE1;opacity:1;stroke-width:0.5;" x1="263" x2="3036" y1="1055.54" y2="1055.54"/>
  <g id="H-reference" style="fill:#27AAE1;stroke:none;" transform="matrix(1 0 0 1 339 1556)">
   <path d="M0.976562 0L3.66211 0L12.9883-24.4629L45.752-24.4629L55.127 0L57.7637 0L30.6152-70.459L28.125-70.459ZM29.3457-67.1387L29.4434-67.1387L44.873-26.709L13.8672-26.709Z"/>
  </g>
  <line id="Baseline-L" style="fill:none;stroke:#27AAE1;opacity:1;stroke-width:0.5;" x1="263" x2="3036" y1="1556" y2="1556"/>
  <line id="Capline-L" style="fill:none;stroke:#27AAE1;opacity:1;stroke-width:0.5;" x1="263" x2="3036" y1="1485.54" y2="1485.54"/>
  <line id="left-margin" style="fill:none;stroke:#00AEEF;stroke-width:0.5;opacity:1.0;" x1="1408.41" x2="1408.41" y1="1030.79" y2="1150.12"/>
  <line id="right-margin" style="fill:none;stroke:#00AEEF;stroke-width:0.5;opacity:1.0;" x1="1491.28" x2="1491.28" y1="1030.79" y2="1150.12"/>
 </g>
 <g id="Symbols">
  <g id="Black-L" transform="matrix(1 0 0 1 2875.07 1556)">
   <path d="M24.9512 16.2598C27.2461 16.2598 29.7852 15.5273 32.0801 14.0137L35.2539 11.9141C42.7734 7.03125 53.8574-4.10156 58.2031-10.6934L58.4473-10.6934C62.6953-4.10156 73.7793 6.98242 81.3965 11.9141L84.5703 14.0137C86.8652 15.4785 89.3066 16.2109 91.6992 16.2109C97.4609 16.2109 100.586 12.3047 100.586 7.37305C100.586 4.3457 98.9258 1.41602 96.1426-0.341797L90.918-3.66211C81.8848-9.375 67.3828-23.9258 67.3828-35.0586L67.3828-56.7871L78.3203-56.7871C84.3262-56.7871 86.1816-62.0605 82.2266-67.4805L64.0625-92.2852C60.8887-96.582 55.7617-96.4844 52.6855-92.2852L34.4238-67.4805C30.4688-62.1582 32.1777-56.7871 38.3301-56.7871L49.2676-56.7871L49.2676-35.0586C49.2676-23.9258 34.6191-9.375 25.7324-3.66211L20.4102-0.292969C17.6758 1.46484 16.0645 4.39453 16.0645 7.42188C16.0645 12.1094 19.043 16.2598 24.9512 16.2598Z"/>
  </g>
  <g id="Heavy-L" transform="matrix(1 0 0 1 2579.73 1556)">
   <path d="M23.9258 14.9902C26.0254 14.9902 28.2715 14.3066 30.3223 12.9883L33.5449 10.8398C41.5527 5.56641 53.0762-6.25 56.8359-12.8906L57.0801-12.8906C60.791-6.25 72.3145 5.51758 80.3711 10.8398L83.5938 12.9883C85.6445 14.2578 87.8906 14.9414 90.0391 14.9414C95.0684 14.9414 97.8516 11.5234 97.8516 7.17773C97.8516 4.49219 96.3867 1.85547 93.9453 0.244141L88.8184-2.97852C79.6875-8.83789 64.9902-23.6328 64.9902-35.4492L64.9902-57.7637L75.5859-57.7637C81.1035-57.7637 82.8125-62.4512 79.248-67.334L62.0605-90.9668C59.2773-94.8242 54.6875-94.7754 51.9043-90.9668L34.668-67.334C31.1523-62.5 32.7148-57.7637 38.3301-57.7637L48.9746-57.7637L48.9746-35.4492C48.9746-23.6328 34.1309-8.88672 25.1465-2.97852L19.9707 0.292969C17.4805 1.85547 16.0645 4.49219 16.0645 7.17773C16.0645 11.377 18.75 14.9902 23.9258 14.9902Z"/>
  </g>
  <g id="Bold-L" transform="matrix(1 0 0 1 2284.53 1556)">
   <path d="M22.7539 13.5742C24.6094 13.5742 26.6113 12.9395 28.3691 11.8164L31.6406 9.61914C40.1367 3.95508 52.1973-8.64258 55.3223-15.3809L55.5664-15.3809C58.6426-8.69141 70.7031 3.95508 79.248 9.61914L82.5195 11.8164C84.2773 12.9395 86.2305 13.5254 88.1348 13.5254C92.3828 13.5254 94.8242 10.6934 94.8242 6.88477C94.8242 4.58984 93.6035 2.29492 91.4551 0.927734L86.4258-2.24609C77.1484-8.25195 62.3047-23.2422 62.3047-35.8887L62.3047-58.8867L72.5586-58.8867C77.5391-58.8867 79.0039-62.8906 75.9277-67.1387L59.9121-89.4531C57.4219-92.8711 53.5156-92.8711 51.0254-89.4531L34.9609-67.1875C31.8848-62.9395 33.252-58.8867 38.3301-58.8867L48.584-58.8867L48.584-35.8887C48.584-23.2422 33.6426-8.30078 24.4629-2.24609L19.4336 0.976562C17.2852 2.34375 16.0645 4.63867 16.0645 6.93359C16.0645 10.498 18.457 13.5742 22.7539 13.5742Z"/>
  </g>
  <g id="Semibold-L" transform="matrix(1 0 0 1 1988.87 1556)">
   <path d="M21.9727 12.5977C23.6328 12.5977 25.4395 12.0117 27.002 10.9863L30.3223 8.78906C39.1602 2.83203 51.5625-10.3027 54.2969-17.0898L54.541-17.0898C57.1777-10.3516 69.5801 2.83203 78.4668 8.78906L81.7871 10.9863C83.3984 12.0117 85.1562 12.5488 86.8164 12.5488C90.4785 12.5488 92.7246 10.0586 92.7246 6.73828C92.7246 4.6875 91.6504 2.63672 89.6973 1.41602L84.8145-1.75781C75.4395-7.86133 60.4492-22.998 60.4492-36.1816L60.4492-59.6191L70.459-59.6191C75.0488-59.6191 76.416-63.1836 73.6328-67.041L58.3984-88.4277C56.1523-91.5527 52.6855-91.5527 50.4395-88.4277L35.1562-67.041C32.373-63.1836 33.6914-59.6191 38.3301-59.6191L48.3398-59.6191L48.3398-36.1816C48.3398-22.998 33.3008-7.91016 23.9746-1.75781L19.043 1.41602C17.1387 2.63672 16.0645 4.73633 16.0645 6.78711C16.0645 9.91211 18.2129 12.5977 21.9727 12.5977Z"/>
  </g>
  <g id="Medium-L" transform="matrix(1 0 0 1 1692.94 1556)">
   <path d="M21.3867 11.8164C22.9004 11.8164 24.5605 11.3281 26.0254 10.3516L29.3457 8.10547C38.4277 2.00195 51.123-11.5723 53.4668-18.4082L53.7109-18.4082C56.0547-11.6211 68.7012 2.00195 77.8809 8.10547L81.2012 10.3516C82.666 11.3281 84.2773 11.8164 85.8398 11.8164C89.1113 11.8164 91.1621 9.61914 91.1621 6.5918C91.1621 4.73633 90.1367 2.88086 88.4277 1.75781L83.5938-1.36719C74.1211-7.56836 59.0332-22.8027 59.0332-36.4258L59.0332-60.2051L68.8477-60.2051C73.1934-60.2051 74.4141-63.4277 71.875-66.9434L57.2266-87.6465C55.1758-90.5273 52.0508-90.5762 50-87.6465L35.3027-66.9922C32.7637-63.4277 33.9844-60.2051 38.3301-60.2051L48.1934-60.2051L48.1934-36.4258C48.1934-22.8027 33.0078-7.61719 23.6328-1.36719L18.7988 1.75781C17.041 2.88086 16.0645 4.78516 16.0645 6.64062C16.0645 9.47266 18.0664 11.8164 21.3867 11.8164Z"/>
  </g>
  <g id="Regular-L" transform="matrix(1 0 0 1 1397.28 1556)">
   <path d="M20.6055 10.8398C21.9727 10.8398 23.3887 10.4004 24.6582 9.57031L28.0762 7.27539C37.5 0.878906 50.4883-13.2324 52.4414-20.0684L52.6855-20.0684C54.5898-13.2812 67.5781 0.878906 77.0996 7.27539L80.4688 9.57031C81.7383 10.4004 83.2031 10.8398 84.5703 10.8398C87.2559 10.8398 89.0625 9.0332 89.0625 6.39648C89.0625 4.83398 88.2324 3.17383 86.7188 2.19727L81.9824-0.878906C72.4121-7.17773 57.2266-22.5586 57.2266-36.7188L57.2266-60.9863L66.7969-60.9863C70.7031-60.9863 71.8262-63.7207 69.6289-66.7969L55.7617-86.6211C53.9551-89.209 51.2695-89.2578 49.3652-86.6211L35.498-66.8457C33.252-63.7207 34.375-60.9863 38.3301-60.9863L47.9492-60.9863L47.9492-36.7188C47.9492-22.5586 32.666-7.22656 23.1934-0.878906L18.4082 2.19727C16.8945 3.17383 16.0645 4.88281 16.0645 6.44531C16.0645 8.88672 17.8223 10.8398 20.6055 10.8398Z"/>
  </g>
  <g id="Light-L" transform="matrix(1 0 0 1 1101.77 1556)">
   <path d="M19.4824 9.76562C20.5566 9.76562 21.582 9.42383 22.5586 8.83789L26.0742 6.44531C36.4746-0.585938 49.6582-15.6738 51.2207-22.9004L51.5137-22.9004C53.0273-15.7227 66.2598-0.585938 76.6602 6.44531L80.1758 8.83789C81.1523 9.42383 82.1777 9.76562 83.252 9.76562C85.3027 9.76562 86.6699 8.39844 86.6699 6.44531C86.6699 5.22461 85.9863 3.95508 84.7656 3.17383L80.3711 0.292969C69.7266-6.73828 54.834-23.2422 54.834-35.5957L54.834-60.6934L65.2832-60.6934C68.5059-60.6934 69.4824-62.9883 67.627-65.625L54.0527-85.0098C52.4902-87.2559 50.293-87.2559 48.6816-85.0098L35.1074-65.6738C33.2031-62.9883 34.1797-60.6934 37.4512-60.6934L47.9004-60.6934L47.9004-35.5957C47.9004-23.2422 33.0078-6.78711 22.3633 0.292969L17.9688 3.17383C16.748 3.95508 16.0645 5.27344 16.0645 6.44531C16.0645 8.30078 17.4316 9.76562 19.4824 9.76562Z"/>
  </g>
  <g id="Thin-L" transform="matrix(1 0 0 1 806.642 1556)">
   <path d="M18.0664 8.34961C18.6523 8.34961 19.2383 8.1543 19.7754 7.86133L23.4863 5.32227C35.1074-2.58789 48.5352-18.9453 49.6094-26.5625L49.9512-26.5625C51.0254-18.9453 64.4531-2.58789 76.0742 5.32227L79.7852 7.86133C80.3223 8.1543 80.9082 8.34961 81.4941 8.34961C82.7148 8.34961 83.4961 7.56836 83.4961 6.44531C83.4961 5.76172 83.0566 4.98047 82.2266 4.44336L78.2227 1.80664C66.1621-6.20117 51.709-24.1211 51.709-34.1309L51.709-60.3516L63.3301-60.3516C65.5762-60.3516 66.4062-61.9629 64.9414-64.0625L51.8066-82.8613C50.5859-84.6191 48.9746-84.6191 47.7539-82.8613L34.6191-64.0625C33.1543-61.9629 33.9844-60.3516 36.2305-60.3516L47.8516-60.3516L47.8516-34.1309C47.8516-24.1211 33.3984-6.25 21.3379 1.80664L17.334 4.44336C16.5039 4.98047 16.0645 5.76172 16.0645 6.44531C16.0645 7.56836 16.8457 8.34961 18.0664 8.34961Z"/>
  </g>
  <g id="Ultralight-L" transform="matrix(1 0 0 1 510.737 1556)">
   <path d="M17.334 7.66602C17.6758 7.66602 18.0664 7.51953 18.3594 7.37305L22.168 4.73633C34.375-3.61328 47.9492-20.6543 48.7793-28.4668L49.1211-28.4668C50-20.6543 63.5742-3.61328 75.7324 4.73633L79.5898 7.37305C79.8828 7.51953 80.2246 7.66602 80.6152 7.66602C81.3477 7.66602 81.8848 7.12891 81.8848 6.49414C81.8848 6.05469 81.543 5.51758 80.9082 5.07812L77.1484 2.58789C64.3066-5.95703 50.0977-24.5605 50.0977-33.3984L50.0977-60.2051L62.3047-60.2051C64.0625-60.2051 64.8438-61.4746 63.5742-63.2812L50.6348-81.7871C49.6094-83.3008 48.291-83.252 47.2656-81.7871L34.375-63.2812C33.1055-61.4746 33.8867-60.2051 35.6445-60.2051L47.8027-60.2051L47.8027-33.3984C47.8027-24.5605 33.6426-5.95703 20.8008 2.58789L17.041 5.07812C16.4062 5.51758 16.0645 6.05469 16.0645 6.44531C16.0645 7.17773 16.5527 7.66602 17.334 7.66602Z"/>
  </g>
  <g id="Black-M" transform="matrix(1 0 0 1 2887.01 1126)">
   <path d="M20.1172 5.85938C22.0703 5.85938 24.2188 5.22461 26.0742 3.95508L28.5645 2.34375C34.2773-1.31836 42.334-9.52148 46.2402-14.6973L46.5332-14.6973C50.3418-9.52148 58.4473-1.36719 64.209 2.34375L66.6992 3.95508C68.6035 5.17578 70.6543 5.76172 72.6562 5.76172C77.7832 5.76172 80.3223 2.29492 80.3223-1.9043C80.3223-4.44336 78.9062-6.98242 76.5137-8.49609L72.4609-11.0352C65.0391-15.6738 54.1992-27.2949 54.1992-33.9844L54.1992-50.4883L63.5254-50.4883C68.5059-50.4883 70.1172-55.127 66.6504-59.7656L51.3672-80.4199C48.6328-84.0332 44.1406-83.9355 41.5039-80.4199L26.123-59.7656C22.7051-55.1758 24.1699-50.4883 29.248-50.4883L38.5742-50.4883L38.5742-33.9844C38.5742-27.2949 27.5879-15.6738 20.3125-11.0352L16.2109-8.39844C13.8184-6.93359 12.4512-4.49219 12.4512-1.9043C12.4512 2.19727 14.8926 5.85938 20.1172 5.85938Z"/>
  </g>
  <g id="Heavy-M" transform="matrix(1 0 0 1 2591.47 1126)">
   <path d="M19.2871 4.73633C21.0449 4.73633 22.998 4.15039 24.707 3.02734L27.2461 1.36719C33.2031-2.53906 41.6992-11.2305 45.1172-16.4062L45.3125-16.4062C48.6816-11.2305 57.1777-2.58789 63.2324 1.36719L65.7227 3.02734C67.4316 4.10156 69.3359 4.6875 71.1426 4.6875C75.6348 4.6875 77.9785 1.61133 77.9785-2.14844C77.9785-4.44336 76.709-6.73828 74.5605-8.05664L70.5566-10.5957C63.3301-15.1855 52.1973-26.7578 52.1973-34.7168L52.1973-51.6113L60.9863-51.6113C65.5762-51.6113 67.041-55.7617 63.916-59.9121L49.6582-79.3457C47.2168-82.666 43.2129-82.5684 40.8203-79.3457L26.5137-59.9121C23.4375-55.8105 24.7559-51.6113 29.4922-51.6113L38.2812-51.6113L38.2812-34.7168C38.2812-26.7578 27.002-15.2344 19.873-10.5957L15.8203-8.00781C13.6719-6.68945 12.4512-4.44336 12.4512-2.14844C12.4512 1.51367 14.6973 4.73633 19.2871 4.73633Z"/>
  </g>
  <g id="Bold-M" transform="matrix(1 0 0 1 2296.08 1126)">
   <path d="M18.3594 3.4668C19.9219 3.4668 21.6797 2.92969 23.1934 1.95312L25.7324 0.292969C31.9824-3.85742 40.9668-13.1348 43.7988-18.3105L43.9941-18.3105C46.7773-13.1836 55.8105-3.90625 62.1094 0.292969L64.5996 1.95312C66.1621 2.92969 67.8223 3.41797 69.4824 3.41797C73.2422 3.41797 75.3418 0.878906 75.3418-2.44141C75.3418-4.44336 74.2676-6.44531 72.4121-7.61719L68.457-10.1562C61.377-14.6973 49.9512-26.1719 49.9512-35.498L49.9512-52.8809L58.0566-52.8809C62.3047-52.8809 63.5742-56.4453 60.8887-60.0586L47.7539-78.1738C45.6543-81.1035 42.1875-81.0547 40.0879-78.1738L26.9531-60.1074C24.2676-56.4453 25.4395-52.8809 29.7363-52.8809L37.8906-52.8809L37.8906-35.498C37.8906-26.1719 26.3672-14.6973 19.3848-10.1562L15.3809-7.56836C13.5254-6.39648 12.4512-4.44336 12.4512-2.39258C12.4512 0.732422 14.502 3.4668 18.3594 3.4668Z"/>
  </g>
  <g id="Semibold-M" transform="matrix(1 0 0 1 2000.27 1126)">
   <path d="M17.7246 2.58789C19.1895 2.58789 20.752 2.14844 22.168 1.2207L24.6582-0.488281C31.1035-4.78516 40.4785-14.4531 42.9199-19.6289L43.1152-19.6289C45.459-14.502 54.834-4.78516 61.3281-0.488281L63.8672 1.2207C65.2832 2.09961 66.7969 2.58789 68.3105 2.58789C71.582 2.58789 73.5352 0.341797 73.5352-2.63672C73.5352-4.44336 72.6074-6.25 70.8984-7.32422L66.9922-9.81445C60.0098-14.3555 48.3887-25.7324 48.3887-36.0352L48.3887-53.7598L56.1035-53.7598C60.0098-53.7598 61.1816-56.8848 58.7891-60.2051L46.4844-77.3926C44.5312-80.0293 41.5039-80.0293 39.5508-77.3926L27.2461-60.2051C24.8047-56.9336 25.9277-53.7598 29.9316-53.7598L37.6465-53.7598L37.6465-36.0352C37.6465-25.7324 25.9277-14.3555 19.043-9.81445L15.0879-7.27539C13.3789-6.20117 12.4512-4.39453 12.4512-2.58789C12.4512 0.195312 14.3555 2.58789 17.7246 2.58789Z"/>
  </g>
  <g id="Medium-M" transform="matrix(1 0 0 1 1704.25 1126)">
   <path d="M17.2363 1.95312C18.6035 1.95312 20.0195 1.51367 21.3379 0.634766L23.877-1.02539C30.4688-5.46875 40.1367-15.4297 42.2363-20.6055L42.3828-20.6055C44.4824-15.4785 54.1016-5.46875 60.7422-1.02539L63.2812 0.634766C64.5996 1.46484 66.0156 1.95312 67.4316 1.95312C70.3613 1.95312 72.168-0.0488281 72.168-2.7832C72.168-4.44336 71.2891-6.10352 69.7754-7.08008L65.8691-9.57031C58.9844-14.0625 47.2168-25.4395 47.2168-36.4746L47.2168-54.4434L54.5898-54.4434C58.3008-54.4434 59.375-57.2754 57.1777-60.2539L45.459-76.7578C43.7012-79.248 40.9668-79.248 39.1602-76.7578L27.4414-60.3027C25.2441-57.2754 26.2695-54.4434 30.0781-54.4434L37.4023-54.4434L37.4023-36.4746C37.4023-25.4395 25.5859-14.1113 18.75-9.57031L14.8438-7.08008C13.3301-6.10352 12.4512-4.39453 12.4512-2.73438C12.4512-0.195312 14.209 1.95312 17.2363 1.95312Z"/>
  </g>
  <g id="Regular-M" transform="matrix(1 0 0 1 1408.41 1126)">
   <path d="M16.5527 1.12305C17.8223 1.12305 19.1406 0.683594 20.3125-0.0976562L22.8516-1.80664C29.6387-6.39648 39.6484-16.748 41.3574-21.9238L41.5039-21.9238C43.1641-16.7969 53.1738-6.39648 60.0098-1.80664L62.5488-0.0976562C63.7207 0.683594 65.0391 1.12305 66.2598 1.12305C68.75 1.12305 70.4102-0.585938 70.4102-2.97852C70.4102-4.44336 69.6289-5.9082 68.3105-6.73828L64.4531-9.22852C57.666-13.7207 45.7031-25.0488 45.7031-37.0117L45.7031-55.3223L52.6367-55.3223C56.0547-55.3223 56.9824-57.7148 55.0781-60.4004L44.1895-75.9766C42.627-78.1738 40.2832-78.2227 38.6719-75.9766L27.7344-60.4492C25.8301-57.7148 26.709-55.3223 30.2246-55.3223L37.1582-55.3223L37.1582-37.0117C37.1582-25.0488 25.1465-13.7695 18.4082-9.22852L14.5508-6.73828C13.1836-5.9082 12.4512-4.39453 12.4512-2.92969C12.4512-0.732422 14.0625 1.12305 16.5527 1.12305Z"/>
  </g>
  <g id="Light-M" transform="matrix(1 0 0 1 1112.78 1126)">
   <path d="M15.5762 0.146484C16.5527 0.146484 17.5293-0.195312 18.4082-0.732422L21.0938-2.53906C28.7109-7.71484 38.8672-18.9941 40.2344-24.4141L40.4297-24.4141C41.7969-18.9941 51.9531-7.71484 59.5703-2.53906L62.2559-0.732422C63.1348-0.195312 64.1602 0.146484 65.0879 0.146484C66.9922 0.146484 68.2617-1.12305 68.2617-2.92969C68.2617-4.05273 67.627-5.22461 66.5527-5.9082L62.9883-8.20312C55.2246-13.3301 43.5547-25.6348 43.5547-35.9863L43.5547-55.0781L51.2695-55.0781C54.1016-55.0781 54.8828-57.0312 53.3203-59.3262L42.6758-74.5117C41.3086-76.416 39.4043-76.4648 38.0371-74.5117L27.3926-59.375C25.7812-57.0312 26.5625-55.0781 29.4434-55.0781L37.1094-55.0781L37.1094-35.9863C37.1094-25.6348 25.4395-13.3789 17.7246-8.20312L14.1113-5.9082C13.0371-5.22461 12.4512-4.00391 12.4512-2.92969C12.4512-1.2207 13.6719 0.146484 15.5762 0.146484Z"/>
  </g>
  <g id="Thin-M" transform="matrix(1 0 0 1 817.506 1126)">
   <path d="M14.3066-1.12305C14.8438-1.12305 15.4297-1.31836 15.918-1.61133L18.7988-3.56445C27.4902-9.47266 37.8418-21.9238 38.8184-27.7344L39.0137-27.7344C39.9902-21.9238 50.3418-9.47266 59.082-3.56445L61.9141-1.61133C62.4023-1.31836 62.9883-1.12305 63.5254-1.12305C64.6484-1.12305 65.3809-1.85547 65.3809-2.92969C65.3809-3.56445 64.9902-4.29688 64.2578-4.73633L61.084-6.83594C52.0508-12.8418 40.7715-26.416 40.7715-34.7168L40.7715-54.7852L49.5117-54.7852C51.4648-54.7852 52.1484-56.2012 50.9277-57.9102L40.625-72.6074C39.5996-74.0723 38.2324-74.0723 37.207-72.6074L26.9531-57.9102C25.6836-56.2012 26.3672-54.7852 28.3691-54.7852L37.1094-54.7852L37.1094-34.7168C37.1094-26.416 25.7812-12.8906 16.748-6.83594L13.5742-4.73633C12.8418-4.29688 12.4512-3.56445 12.4512-2.92969C12.4512-1.9043 13.1836-1.12305 14.3066-1.12305Z"/>
  </g>
  <g id="Ultralight-M" transform="matrix(1 0 0 1 521.528 1126)">
   <path d="M13.623-1.80664C14.0137-1.80664 14.3555-1.9043 14.6484-2.09961L17.5781-4.10156C26.8555-10.4004 37.3535-23.4375 38.0859-29.3945L38.3301-29.3945C39.0625-23.4375 49.5117-10.4004 58.7891-4.10156L61.7188-2.09961C62.0117-1.9043 62.4023-1.80664 62.7441-1.80664C63.4766-1.80664 63.916-2.24609 63.916-2.92969C63.916-3.32031 63.623-3.80859 63.0859-4.19922L60.1074-6.15234C50.3906-12.5977 39.3066-26.8066 39.3066-34.0332L39.3066-54.6387L48.584-54.6387C50.0977-54.6387 50.7324-55.7129 49.707-57.2266L39.5996-71.6309C38.7207-72.8516 37.6465-72.8516 36.7676-71.6309L26.709-57.1777C25.6836-55.7129 26.2695-54.6387 27.7832-54.6387L37.0605-54.6387L37.0605-34.0332C37.0605-26.8066 25.9766-12.5977 16.2598-6.15234L13.2812-4.19922C12.7441-3.80859 12.4512-3.32031 12.4512-2.92969C12.4512-2.24609 12.9395-1.80664 13.623-1.80664Z"/>
  </g>
  <g id="Black-S" transform="matrix(1 0 0 1 2897.12 696)">
   <path d="M15.7227-3.125C17.2363-3.125 18.8965-3.61328 20.3613-4.58984L22.3145-5.85938C26.8066-8.74023 33.1543-15.1855 36.1816-19.2383L36.377-19.2383C39.3555-15.1855 45.7031-8.78906 50.2441-5.85938L52.1973-4.58984C53.6621-3.66211 55.2734-3.17383 56.8359-3.17383C60.791-3.17383 62.793-5.85938 62.793-9.13086C62.793-11.1328 61.6699-13.0859 59.8145-14.2578L56.6406-16.2598C50.8789-19.873 42.334-28.9551 42.334-34.3262L42.334-47.2656L49.6094-47.2656C53.4668-47.2656 54.7363-50.8789 52.0508-54.4922L40.1367-70.5566C38.0371-73.3887 34.5215-73.291 32.4707-70.5566L20.5078-54.4922C17.8711-50.9277 18.9941-47.2656 22.9492-47.2656L30.2246-47.2656L30.2246-34.3262C30.2246-28.9551 21.582-19.873 15.918-16.2598L12.6953-14.209C10.8398-13.0371 9.76562-11.1328 9.76562-9.13086C9.76562-5.95703 11.6699-3.125 15.7227-3.125Z"/>
  </g>
  <g id="Heavy-S" transform="matrix(1 0 0 1 2601.19 696)">
   <path d="M15.1855-3.85742C16.6016-3.85742 18.1641-4.3457 19.5312-5.22461L21.4844-6.54297C26.0742-9.52148 32.7637-16.2598 35.4004-20.2637L35.5957-20.2637C38.2324-16.2598 44.873-9.52148 49.5117-6.54297L51.4648-5.22461C52.832-4.39453 54.3457-3.90625 55.8105-3.90625C59.375-3.90625 61.2305-6.29883 61.2305-9.32617C61.2305-11.1816 60.2051-12.9883 58.5449-14.0625L55.3711-16.0645C49.8047-19.5801 41.0156-28.4668 41.0156-34.9609L41.0156-48.1445L47.8027-48.1445C51.4648-48.1445 52.5879-51.416 50.1465-54.7363L39.0137-69.9219C37.1094-72.5098 33.9355-72.4609 32.0312-69.9219L20.8496-54.7363C18.457-51.4648 19.4824-48.1445 23.2422-48.1445L29.9805-48.1445L29.9805-34.9609C29.9805-28.4668 21.0938-19.5801 15.6738-16.0645L12.4512-14.0137C10.7422-12.9395 9.76562-11.1328 9.76562-9.32617C9.76562-6.44531 11.5723-3.85742 15.1855-3.85742Z"/>
  </g>
  <g id="Bold-S" transform="matrix(1 0 0 1 2305.33 696)">
   <path d="M14.5996-4.73633C15.918-4.73633 17.334-5.12695 18.6035-6.00586L20.5566-7.27539C25.2441-10.3516 32.2754-17.4316 34.5703-21.3867L34.7168-21.3867C36.9141-17.4805 43.9941-10.4004 48.7305-7.27539L50.6836-6.00586C51.9531-5.17578 53.3203-4.73633 54.6875-4.73633C57.7637-4.73633 59.5215-6.83594 59.5215-9.52148C59.5215-11.1816 58.5938-12.8418 57.0801-13.8184L53.9062-15.8203C48.6328-19.1895 39.5996-27.9297 39.5996-35.6934L39.5996-49.1699L45.752-49.1699C49.1699-49.1699 50.1953-52.002 48.0469-54.9805L37.7441-69.1895C36.0352-71.582 33.252-71.5332 31.543-69.1895L21.1914-54.9805C19.043-52.0508 20.0195-49.1699 23.5352-49.1699L29.6875-49.1699L29.6875-35.6934C29.6875-27.9297 20.5566-19.2383 15.332-15.8203L12.1582-13.7695C10.6445-12.793 9.76562-11.1816 9.76562-9.52148C9.76562-6.93359 11.4258-4.73633 14.5996-4.73633Z"/>
  </g>
  <g id="Semibold-S" transform="matrix(1 0 0 1 2009.23 696)">
   <path d="M14.209-5.27344C15.4297-5.27344 16.748-5.71289 17.9688-6.49414L19.9219-7.76367C24.6582-10.9375 31.9824-18.2617 33.9844-22.2168L34.082-22.2168C36.0352-18.2617 43.3594-10.9863 48.1934-7.76367L50.0977-6.49414C51.3184-5.71289 52.6367-5.32227 53.8574-5.32227C56.6406-5.32227 58.3008-7.17773 58.3008-9.7168C58.3008-11.2305 57.4707-12.7441 56.1035-13.623L52.9297-15.6738C47.8027-18.9453 38.5742-27.5879 38.5742-36.2305L38.5742-49.8535L44.3359-49.8535C47.6074-49.8535 48.5352-52.4414 46.582-55.127L36.8652-68.7012C35.3027-70.8984 32.8125-70.8984 31.2012-68.7012L21.4844-55.1758C19.4824-52.4414 20.3613-49.8535 23.7305-49.8535L29.4922-49.8535L29.4922-36.2305C29.4922-27.5879 20.2148-18.9941 15.1367-15.6738L11.9629-13.623C10.5469-12.7441 9.76562-11.1816 9.76562-9.66797C9.76562-7.32422 11.377-5.27344 14.209-5.27344Z"/>
  </g>
  <g id="Medium-S" transform="matrix(1 0 0 1 1712.99 696)">
   <path d="M13.8672-5.71289C15.0879-5.71289 16.3086-6.10352 17.4805-6.88477L19.3848-8.1543C24.2676-11.377 31.7383-18.8477 33.4961-22.8027L33.6426-22.8027C35.4004-18.8965 42.8711-11.4258 47.7539-8.1543L49.6582-6.88477C50.8301-6.15234 52.0996-5.76172 53.2715-5.76172C55.8105-5.76172 57.373-7.4707 57.373-9.81445C57.373-11.2305 56.6406-12.6953 55.3711-13.5254L52.1973-15.5273C47.168-18.7988 37.8418-27.2949 37.8418-36.6211L37.8418-50.3906L43.2617-50.3906C46.4355-50.3906 47.3145-52.7344 45.5078-55.2734L36.2305-68.3105C34.7656-70.4102 32.4707-70.4102 30.957-68.3105L21.6797-55.3223C19.8242-52.7832 20.6543-50.3906 23.877-50.3906L29.3457-50.3906L29.3457-36.6211C29.3457-27.2949 19.9219-18.8477 14.9902-15.5273L11.8164-13.4766C10.498-12.6465 9.76562-11.2305 9.76562-9.76562C9.76562-7.56836 11.2793-5.71289 13.8672-5.71289Z"/>
  </g>
  <g id="Regular-S" transform="matrix(1 0 0 1 1416.86 696)">
   <path d="M13.4766-6.29883C14.5996-6.29883 15.7715-6.68945 16.8457-7.37305L18.75-8.64258C23.6816-11.9629 31.4453-19.6777 32.959-23.584L33.0566-23.584C34.5215-19.7266 42.2363-11.9629 47.2168-8.64258L49.1211-7.37305C50.1953-6.68945 51.3672-6.29883 52.4902-6.29883C54.6875-6.29883 56.2012-7.8125 56.2012-9.96094C56.2012-11.2793 55.5664-12.5977 54.3457-13.3301L51.1719-15.3809C46.3379-18.5547 36.8164-26.9531 36.8164-37.1094L36.8164-51.0742L41.8945-51.0742C44.9219-51.0742 45.6543-53.1738 44.043-55.4688L35.3516-67.8223C34.0332-69.7266 31.9824-69.7754 30.6152-67.8223L21.9238-55.5176C20.2637-53.1738 21.0449-51.0742 24.0723-51.0742L29.1504-51.0742L29.1504-37.1094C29.1504-26.9531 19.5801-18.6035 14.7949-15.3809L11.6211-13.3301C10.4492-12.5977 9.76562-11.2305 9.76562-9.91211C9.76562-7.95898 11.2305-6.29883 13.4766-6.29883Z"/>
  </g>
  <g id="Light-S" transform="matrix(1 0 0 1 1121.1 696)">
   <path d="M12.5977-7.12891C13.4766-7.12891 14.3555-7.42188 15.1855-7.95898L17.2363-9.32617C22.8516-13.1836 30.7617-21.6309 31.9824-25.7812L32.0801-25.7812C33.3008-21.6797 41.1621-13.1836 46.875-9.32617L48.877-7.95898C49.707-7.42188 50.5859-7.12891 51.4648-7.12891C53.1738-7.12891 54.2969-8.30078 54.2969-9.96094C54.2969-10.9375 53.7598-11.9629 52.832-12.5977L49.9023-14.4531C44.1895-18.2129 34.9609-27.4902 34.9609-36.2305L34.9609-50.8789L40.6738-50.8789C43.1641-50.8789 43.8477-52.5879 42.4805-54.4922L34.0332-66.5527C32.8613-68.1641 31.2012-68.2129 30.0781-66.5527L21.6309-54.541C20.2148-52.5879 20.8984-50.8789 23.3887-50.8789L29.1016-50.8789L29.1016-36.2305C29.1016-27.4902 19.8242-18.2617 14.1602-14.4531L11.2305-12.5977C10.3027-11.9629 9.76562-10.9375 9.76562-9.91211C9.76562-8.39844 10.8887-7.12891 12.5977-7.12891Z"/>
  </g>
  <g id="Thin-S" transform="matrix(1 0 0 1 825.636 696)">
   <path d="M11.4746-8.25195C11.9629-8.25195 12.5-8.44727 12.9883-8.74023L15.1855-10.2051C21.7773-14.7461 29.8828-24.2188 30.7129-28.7109L30.8594-28.7109C31.6895-24.2676 39.7461-14.7461 46.3867-10.2051L48.584-8.74023C49.0723-8.44727 49.5605-8.25195 50.0977-8.25195C51.123-8.25195 51.8066-8.93555 51.8066-9.91211C51.8066-10.5469 51.416-11.1816 50.7812-11.5723L48.2422-13.2812C41.4062-17.8223 32.4707-28.1738 32.4707-35.0586L32.4707-50.6348L39.1113-50.6348C40.8203-50.6348 41.4062-51.8066 40.332-53.2715L32.2266-64.8926C31.3965-66.1133 30.1758-66.1133 29.3457-64.8926L21.1914-53.2715C20.166-51.8066 20.7031-50.6348 22.4121-50.6348L29.1016-50.6348L29.1016-35.0586C29.1016-28.1738 20.166-17.8223 13.3301-13.2812L10.7422-11.5723C10.1074-11.1816 9.76562-10.498 9.76562-9.91211C9.76562-8.98438 10.4492-8.25195 11.4746-8.25195Z"/>
  </g>
  <g id="Ultralight-S" transform="matrix(1 0 0 1 529.584 696)">
   <path d="M10.8887-8.83789C11.2305-8.83789 11.5234-8.98438 11.8164-9.13086L14.1113-10.6934C21.2402-15.5273 29.3945-25.5859 30.0293-30.2246L30.2246-30.2246C30.8594-25.5859 39.0137-15.5273 46.1426-10.6934L48.4375-9.13086C48.7305-8.98438 49.0234-8.83789 49.3652-8.83789C50.0488-8.83789 50.4883-9.27734 50.4883-9.91211C50.4883-10.3027 50.2441-10.7422 49.7559-11.0352L47.3633-12.6465C39.9414-17.5781 31.2012-28.5156 31.2012-34.4727L31.2012-50.4883L38.3301-50.4883C39.6484-50.4883 40.1367-51.416 39.2578-52.6367L31.2988-64.0137C30.6152-65.0391 29.6387-65.0391 28.9551-64.0137L20.9961-52.6367C20.1172-51.416 20.6055-50.4883 21.9238-50.4883L29.0527-50.4883L29.0527-34.4727C29.0527-28.5156 20.3125-17.5781 12.8906-12.6465L10.498-11.0352C10.0098-10.7422 9.76562-10.3027 9.76562-9.91211C9.76562-9.32617 10.2051-8.83789 10.8887-8.83789Z"/>
  </g>
 </g>
</svg>
